<mxfile host="app.diagrams.net" modified="2023-09-02T07:11:26.921Z" agent="Mozilla/5.0 (Windows NT 10.0; Win64; x64) AppleWebKit/537.36 (KHTML, like Gecko) Chrome/116.0.0.0 Safari/537.36" etag="48zlB7CmrpGMG38FFkb9" version="21.7.1" type="github">
  <diagram id="C5RBs43oDa-KdzZeNtuy" name="Page-1">
    <mxGraphModel dx="1209" dy="735" grid="1" gridSize="10" guides="1" tooltips="1" connect="1" arrows="1" fold="1" page="1" pageScale="1" pageWidth="827" pageHeight="1169" math="0" shadow="0">
      <root>
        <mxCell id="WIyWlLk6GJQsqaUBKTNV-0" />
        <mxCell id="WIyWlLk6GJQsqaUBKTNV-1" parent="WIyWlLk6GJQsqaUBKTNV-0" />
        <mxCell id="8W9beCQc0UQPhHP_uDag-3" value="" style="edgeStyle=orthogonalEdgeStyle;rounded=0;orthogonalLoop=1;jettySize=auto;html=1;" edge="1" parent="WIyWlLk6GJQsqaUBKTNV-1" source="8W9beCQc0UQPhHP_uDag-0" target="8W9beCQc0UQPhHP_uDag-1">
          <mxGeometry relative="1" as="geometry" />
        </mxCell>
        <mxCell id="8W9beCQc0UQPhHP_uDag-0" value="Enter Email" style="rounded=1;whiteSpace=wrap;html=1;" vertex="1" parent="WIyWlLk6GJQsqaUBKTNV-1">
          <mxGeometry x="190" y="60" width="120" height="30" as="geometry" />
        </mxCell>
        <mxCell id="8W9beCQc0UQPhHP_uDag-8" value="" style="edgeStyle=orthogonalEdgeStyle;rounded=0;orthogonalLoop=1;jettySize=auto;html=1;" edge="1" parent="WIyWlLk6GJQsqaUBKTNV-1" source="8W9beCQc0UQPhHP_uDag-1" target="8W9beCQc0UQPhHP_uDag-7">
          <mxGeometry relative="1" as="geometry" />
        </mxCell>
        <mxCell id="8W9beCQc0UQPhHP_uDag-34" value="&amp;nbsp;No&amp;nbsp;" style="edgeLabel;html=1;align=center;verticalAlign=middle;resizable=0;points=[];" vertex="1" connectable="0" parent="8W9beCQc0UQPhHP_uDag-8">
          <mxGeometry x="-0.0737" relative="1" as="geometry">
            <mxPoint as="offset" />
          </mxGeometry>
        </mxCell>
        <mxCell id="8W9beCQc0UQPhHP_uDag-1" value="Is Email Verified ?" style="rhombus;whiteSpace=wrap;html=1;movable=1;resizable=1;rotatable=1;deletable=1;editable=1;locked=0;connectable=1;" vertex="1" parent="WIyWlLk6GJQsqaUBKTNV-1">
          <mxGeometry x="187.5" y="160" width="125" height="110" as="geometry" />
        </mxCell>
        <mxCell id="8W9beCQc0UQPhHP_uDag-30" value="" style="edgeStyle=orthogonalEdgeStyle;rounded=0;orthogonalLoop=1;jettySize=auto;html=1;" edge="1" parent="WIyWlLk6GJQsqaUBKTNV-1" source="8W9beCQc0UQPhHP_uDag-4" target="8W9beCQc0UQPhHP_uDag-29">
          <mxGeometry relative="1" as="geometry" />
        </mxCell>
        <mxCell id="8W9beCQc0UQPhHP_uDag-4" value="Enter Password" style="whiteSpace=wrap;html=1;movable=1;resizable=1;rotatable=1;deletable=1;editable=1;locked=0;connectable=1;rounded=0;" vertex="1" parent="WIyWlLk6GJQsqaUBKTNV-1">
          <mxGeometry x="400" y="238" width="120" height="60" as="geometry" />
        </mxCell>
        <mxCell id="8W9beCQc0UQPhHP_uDag-20" value="" style="edgeStyle=orthogonalEdgeStyle;rounded=0;orthogonalLoop=1;jettySize=auto;html=1;" edge="1" parent="WIyWlLk6GJQsqaUBKTNV-1" source="8W9beCQc0UQPhHP_uDag-7" target="8W9beCQc0UQPhHP_uDag-19">
          <mxGeometry relative="1" as="geometry" />
        </mxCell>
        <mxCell id="8W9beCQc0UQPhHP_uDag-7" value="Sent OTP for verification ?" style="whiteSpace=wrap;html=1;" vertex="1" parent="WIyWlLk6GJQsqaUBKTNV-1">
          <mxGeometry x="190" y="360" width="120" height="60" as="geometry" />
        </mxCell>
        <mxCell id="8W9beCQc0UQPhHP_uDag-25" style="edgeStyle=orthogonalEdgeStyle;rounded=0;orthogonalLoop=1;jettySize=auto;html=1;curved=1;exitX=0;exitY=0.5;exitDx=0;exitDy=0;" edge="1" parent="WIyWlLk6GJQsqaUBKTNV-1" source="8W9beCQc0UQPhHP_uDag-10">
          <mxGeometry relative="1" as="geometry">
            <mxPoint x="190" y="480" as="targetPoint" />
            <Array as="points">
              <mxPoint x="190" y="580" />
              <mxPoint x="50" y="580" />
              <mxPoint x="50" y="480" />
            </Array>
          </mxGeometry>
        </mxCell>
        <mxCell id="8W9beCQc0UQPhHP_uDag-26" value="&amp;nbsp;No&amp;nbsp;" style="edgeLabel;html=1;align=center;verticalAlign=middle;resizable=0;points=[];" vertex="1" connectable="0" parent="8W9beCQc0UQPhHP_uDag-25">
          <mxGeometry x="-0.0091" y="-1" relative="1" as="geometry">
            <mxPoint as="offset" />
          </mxGeometry>
        </mxCell>
        <mxCell id="8W9beCQc0UQPhHP_uDag-63" style="edgeStyle=orthogonalEdgeStyle;rounded=0;orthogonalLoop=1;jettySize=auto;html=1;entryX=0.5;entryY=1;entryDx=0;entryDy=0;" edge="1" parent="WIyWlLk6GJQsqaUBKTNV-1" source="8W9beCQc0UQPhHP_uDag-10" target="8W9beCQc0UQPhHP_uDag-61">
          <mxGeometry relative="1" as="geometry" />
        </mxCell>
        <mxCell id="8W9beCQc0UQPhHP_uDag-64" value="&amp;nbsp;Yes&amp;nbsp;" style="edgeLabel;html=1;align=center;verticalAlign=middle;resizable=0;points=[];" vertex="1" connectable="0" parent="8W9beCQc0UQPhHP_uDag-63">
          <mxGeometry x="-0.5023" y="-3" relative="1" as="geometry">
            <mxPoint x="-1" as="offset" />
          </mxGeometry>
        </mxCell>
        <mxCell id="8W9beCQc0UQPhHP_uDag-10" value="Is entered OTP Correct ?" style="rhombus;whiteSpace=wrap;html=1;movable=1;resizable=1;rotatable=1;deletable=1;editable=1;locked=0;connectable=1;" vertex="1" parent="WIyWlLk6GJQsqaUBKTNV-1">
          <mxGeometry x="190" y="534.5" width="120" height="100" as="geometry" />
        </mxCell>
        <mxCell id="8W9beCQc0UQPhHP_uDag-22" value="" style="edgeStyle=orthogonalEdgeStyle;rounded=0;orthogonalLoop=1;jettySize=auto;html=1;" edge="1" parent="WIyWlLk6GJQsqaUBKTNV-1" source="8W9beCQc0UQPhHP_uDag-19" target="8W9beCQc0UQPhHP_uDag-10">
          <mxGeometry relative="1" as="geometry" />
        </mxCell>
        <mxCell id="8W9beCQc0UQPhHP_uDag-19" value="Entered OTP" style="whiteSpace=wrap;html=1;" vertex="1" parent="WIyWlLk6GJQsqaUBKTNV-1">
          <mxGeometry x="192.5" y="460" width="115" height="30" as="geometry" />
        </mxCell>
        <mxCell id="8W9beCQc0UQPhHP_uDag-31" style="edgeStyle=orthogonalEdgeStyle;rounded=0;orthogonalLoop=1;jettySize=auto;html=1;exitX=0.378;exitY=0.87;exitDx=0;exitDy=0;exitPerimeter=0;" edge="1" parent="WIyWlLk6GJQsqaUBKTNV-1" source="8W9beCQc0UQPhHP_uDag-29">
          <mxGeometry relative="1" as="geometry">
            <mxPoint x="683" y="318" as="sourcePoint" />
            <mxPoint x="460" y="240" as="targetPoint" />
            <Array as="points">
              <mxPoint x="670" y="288" />
              <mxPoint x="683" y="288" />
              <mxPoint x="683" y="210" />
              <mxPoint x="460" y="210" />
            </Array>
          </mxGeometry>
        </mxCell>
        <mxCell id="8W9beCQc0UQPhHP_uDag-32" value="&amp;nbsp;&lt;font style=&quot;font-size: 11px;&quot;&gt;No&amp;nbsp;&lt;/font&gt;" style="edgeLabel;html=1;align=center;verticalAlign=middle;resizable=0;points=[];" vertex="1" connectable="0" parent="8W9beCQc0UQPhHP_uDag-31">
          <mxGeometry x="-0.0528" y="1" relative="1" as="geometry">
            <mxPoint as="offset" />
          </mxGeometry>
        </mxCell>
        <mxCell id="8W9beCQc0UQPhHP_uDag-37" value="" style="edgeStyle=orthogonalEdgeStyle;rounded=0;orthogonalLoop=1;jettySize=auto;html=1;" edge="1" parent="WIyWlLk6GJQsqaUBKTNV-1" source="8W9beCQc0UQPhHP_uDag-29" target="8W9beCQc0UQPhHP_uDag-36">
          <mxGeometry relative="1" as="geometry" />
        </mxCell>
        <mxCell id="8W9beCQc0UQPhHP_uDag-40" value="&amp;nbsp;Yes&amp;nbsp;" style="edgeLabel;html=1;align=center;verticalAlign=middle;resizable=0;points=[];" vertex="1" connectable="0" parent="8W9beCQc0UQPhHP_uDag-37">
          <mxGeometry x="-0.0254" y="1" relative="1" as="geometry">
            <mxPoint as="offset" />
          </mxGeometry>
        </mxCell>
        <mxCell id="8W9beCQc0UQPhHP_uDag-29" value="Is Password Correct ?" style="rhombus;whiteSpace=wrap;html=1;" vertex="1" parent="WIyWlLk6GJQsqaUBKTNV-1">
          <mxGeometry x="628" y="228" width="110" height="80" as="geometry" />
        </mxCell>
        <mxCell id="8W9beCQc0UQPhHP_uDag-39" value="" style="edgeStyle=orthogonalEdgeStyle;rounded=0;orthogonalLoop=1;jettySize=auto;html=1;" edge="1" parent="WIyWlLk6GJQsqaUBKTNV-1" source="8W9beCQc0UQPhHP_uDag-36" target="8W9beCQc0UQPhHP_uDag-38">
          <mxGeometry relative="1" as="geometry" />
        </mxCell>
        <mxCell id="8W9beCQc0UQPhHP_uDag-36" value="Generate Authentication Token" style="whiteSpace=wrap;html=1;" vertex="1" parent="WIyWlLk6GJQsqaUBKTNV-1">
          <mxGeometry x="623" y="380" width="120" height="60" as="geometry" />
        </mxCell>
        <mxCell id="8W9beCQc0UQPhHP_uDag-38" value="User Authentication Success" style="rounded=1;whiteSpace=wrap;html=1;" vertex="1" parent="WIyWlLk6GJQsqaUBKTNV-1">
          <mxGeometry x="623" y="528" width="120" height="60" as="geometry" />
        </mxCell>
        <mxCell id="8W9beCQc0UQPhHP_uDag-52" value="" style="strokeWidth=1;html=1;shape=mxgraph.flowchart.annotation_2;align=left;labelPosition=right;pointerEvents=1;fillColor=default;movable=1;resizable=1;rotatable=1;deletable=1;editable=1;locked=0;connectable=1;" vertex="1" parent="WIyWlLk6GJQsqaUBKTNV-1">
          <mxGeometry x="312.5" y="160" width="87.5" height="110" as="geometry" />
        </mxCell>
        <mxCell id="8W9beCQc0UQPhHP_uDag-58" value="" style="edgeStyle=orthogonalEdgeStyle;rounded=0;orthogonalLoop=1;jettySize=auto;html=1;" edge="1" parent="WIyWlLk6GJQsqaUBKTNV-1" source="8W9beCQc0UQPhHP_uDag-53" target="8W9beCQc0UQPhHP_uDag-57">
          <mxGeometry relative="1" as="geometry" />
        </mxCell>
        <mxCell id="8W9beCQc0UQPhHP_uDag-53" value="Reset Password ?" style="whiteSpace=wrap;html=1;movable=1;resizable=1;rotatable=1;deletable=1;editable=1;locked=0;connectable=1;" vertex="1" parent="WIyWlLk6GJQsqaUBKTNV-1">
          <mxGeometry x="400" y="129" width="120" height="60" as="geometry" />
        </mxCell>
        <mxCell id="8W9beCQc0UQPhHP_uDag-56" value="Yes" style="text;html=1;strokeColor=none;fillColor=none;align=center;verticalAlign=middle;whiteSpace=wrap;rounded=0;" vertex="1" parent="WIyWlLk6GJQsqaUBKTNV-1">
          <mxGeometry x="300" y="190" width="60" height="30" as="geometry" />
        </mxCell>
        <mxCell id="8W9beCQc0UQPhHP_uDag-60" value="" style="edgeStyle=orthogonalEdgeStyle;rounded=0;orthogonalLoop=1;jettySize=auto;html=1;" edge="1" parent="WIyWlLk6GJQsqaUBKTNV-1" source="8W9beCQc0UQPhHP_uDag-57" target="8W9beCQc0UQPhHP_uDag-59">
          <mxGeometry relative="1" as="geometry" />
        </mxCell>
        <mxCell id="8W9beCQc0UQPhHP_uDag-57" value="Email Reset Link with&amp;nbsp;embedded token" style="whiteSpace=wrap;html=1;" vertex="1" parent="WIyWlLk6GJQsqaUBKTNV-1">
          <mxGeometry x="600" y="129" width="120" height="60" as="geometry" />
        </mxCell>
        <mxCell id="8W9beCQc0UQPhHP_uDag-59" value="Enter New Password and Confirm Password" style="whiteSpace=wrap;html=1;" vertex="1" parent="WIyWlLk6GJQsqaUBKTNV-1">
          <mxGeometry x="800" y="129" width="120" height="60" as="geometry" />
        </mxCell>
        <mxCell id="8W9beCQc0UQPhHP_uDag-65" style="edgeStyle=orthogonalEdgeStyle;rounded=0;orthogonalLoop=1;jettySize=auto;html=1;" edge="1" parent="WIyWlLk6GJQsqaUBKTNV-1" source="8W9beCQc0UQPhHP_uDag-61" target="8W9beCQc0UQPhHP_uDag-36">
          <mxGeometry relative="1" as="geometry" />
        </mxCell>
        <mxCell id="8W9beCQc0UQPhHP_uDag-61" value="Create Password" style="whiteSpace=wrap;html=1;movable=1;resizable=1;rotatable=1;deletable=1;editable=1;locked=0;connectable=1;rounded=0;" vertex="1" parent="WIyWlLk6GJQsqaUBKTNV-1">
          <mxGeometry x="400" y="380" width="120" height="60" as="geometry" />
        </mxCell>
      </root>
    </mxGraphModel>
  </diagram>
</mxfile>
